<svg width="0" height="0" class="hidden">
  <symbol viewBox="0 0 32 32" xmlns="http://www.w3.org/2000/svg" id="add-row">
    <g fill="none" fill-rule="evenodd">
      <circle fill="#D0D4DA" cx="16" cy="16" r="16"></circle>
      <path fill="#FFF" d="M20.52 16.84h-3.48v3.4h-2.58v-3.4H11V14.4h3.46V11h2.58v3.4h3.48z"></path>
    </g>
  </symbol>
  <symbol viewBox="0 0 16 20" xmlns="http://www.w3.org/2000/svg" id="delete">
    <path d="M3.429 20h9.142c1.258 0 2.286-1 2.286-2.222V4.444H1.143v13.334C1.143 19 2.17 20 3.429 20zM12 1.111L10.857 0H5.143L4 1.111H0v2.222h16V1.111h-4z" fill="#BFC4CE" fill-rule="evenodd"></path>
  </symbol>
  <symbol viewBox="0 0 24 24" xmlns="http://www.w3.org/2000/svg" id="fetch-document">
    <g fill="none" fill-rule="evenodd">
      <path d="M0 0h24v24H0z"></path>
      <path d="M4 6H2v14c0 1.1.9 2 2 2h14v-2H4V6zm16-4H8c-1.1 0-2 .9-2 2v12c0 1.1.9 2 2 2h12c1.1 0 2-.9 2-2V4c0-1.1-.9-2-2-2zm-1 9h-4v4h-2v-4H9V9h4V5h2v4h4v2z" fill="#8F97A8" fill-rule="nonzero"></path>
    </g>
  </symbol>
  <symbol viewBox="0 0 26 26" xmlns="http://www.w3.org/2000/svg" id="person">
    <g fill="none" fill-rule="evenodd">
      <rect fill="#34A5FF" width="26" height="26" rx="13"></rect>
      <path fill="#FFF" d="M13.448 12.552l3.966 4.034-3.966.813z"></path>
      <circle fill="#FFF" cx="19.724" cy="10.759" r="1.793"></circle>
      <circle fill="#FFF" cx="8.069" cy="10.759" r="1.793"></circle>
    </g>
  </symbol>
  <symbol viewBox="0 0 24 24" xmlns="http://www.w3.org/2000/svg" id="upload">
    <g fill="none" fill-rule="evenodd">
      <path d="M0 0h24v24H0z"></path>
      <path d="M9 16h6v-6h4l-7-7-7 7h4v6zm-4 2h14v2H5v-2z" fill="#8F97A8" fill-rule="nonzero"></path>
    </g>
  </symbol>
</svg>